#N canvas -9 276 520 652 12;
#X msg 56 26 devices;
#X msg 114 48 baud 115200;
#X msg 154 113 close;
#X msg 133 78 open 4;
#X obj 59 220 pdchoco/slip_parse;
#X obj 59 252 oscparse;
#X obj 59 285 list trim;
#X obj 60 183 comport;
#X obj 47 326 route bouton angle;
#X obj 108 366 nbx 5 17 -1e+37 1e+37 0 0 empty empty empty 0 -10 0 12 #fcfcfc #000000 #000000 0 256;
#X obj 108 396 pdchoco/scope 0 1;
#X obj 41 511 pdchoco/scope 0 4095;
#X obj 34 459 nbx 5 17 -1e+37 1e+37 0 0 empty empty empty 0 -10 0 12 #fcfcfc #000000 #000000 0 256;
#X connect 0 0 7 0;
#X connect 1 0 7 0;
#X connect 2 0 7 0;
#X connect 3 0 7 0;
#X connect 4 0 5 0;
#X connect 5 0 6 0;
#X connect 6 0 8 0;
#X connect 7 0 4 0;
#X connect 8 0 12 0;
#X connect 8 1 9 0;
#X connect 9 0 10 0;
#X connect 12 0 11 0;
