#N canvas 630 431 450 455 12;
#X msg 165 14 devices;
#X msg 73 10 baud 115200;
#X msg 156 38 close;
#X msg 85 36 open 4;
#X obj 49 136 pdchoco/slip_parse;
#X obj 49 168 oscparse;
#X obj 49 201 list trim;
#X obj 50 99 comport;
#X obj 38 346 tgl 19 0 empty empty empty 0 -10 0 12 #fcfcfc #000000 #000000 0 1;
#X obj 59 285 route bouton angle;
#X msg 215 39 baud 115200 \, open 4;
#X obj 97 340 nbx 5 17 -1e+37 1e+37 0 0 empty empty empty 0 -10 0 12 #fcfcfc #000000 #000000 0 256;
#X connect 0 0 7 0;
#X connect 1 0 7 0;
#X connect 2 0 7 0;
#X connect 3 0 7 0;
#X connect 4 0 5 0;
#X connect 5 0 6 0;
#X connect 6 0 9 0;
#X connect 7 0 4 0;
#X connect 9 0 8 0;
#X connect 9 1 11 0;
#X connect 10 0 7 0;
